<svg version="1.0" xmlns="http://www.w3.org/2000/svg" width="75" height="76" viewBox="0 0 750 760"><path d="M0 380V0h750v760H0V380z" fill="#e38610"/><g fill="#fcf9ef"><path d="M0 380V0h750v760H0V380zm524 327c68-31 136-98 172-169 23-43 28-70 32-145 4-86 2-96-26-156-39-84-92-141-166-180-57-30-68-32-161-32-118 0-165 17-241 87-62 57-91 105-110 181-46 177 54 363 229 428 73 27 194 21 271-14z"/><path d="M520 655c-14-17-2-25 35-25 53 0 72-50 24-63-31-8-24-37 10-37 33 0 54-20 45-44-4-10-18-16-38-16-37 0-61-14-52-29 4-7 39-11 87-11 76 0 79 1 79 23 0 35-47 121-89 165-40 41-84 57-101 37zM111 605C-7 471 0 258 126 136c35-34 41-36 103-36 107 0 128 36 26 42-46 3-50 5-50 28 0 21 6 26 35 30 22 3 36 11 38 22 3 14-6 17-50 20-49 3-53 5-56 29-3 21 2 27 28 35 49 14 40 29-20 34-47 4-55 8-58 27-5 37 28 46 145 38 75-5 108-4 118 5 26 22 5 30-74 30-94 0-122 18-85 54 10 11 34 16 75 16 46 0 59 3 59 15s-13 15-59 15c-41 0-62 5-72 16-20 24 1 48 45 52 23 2 36 8 36 18 0 11-18 14-84 14-84 0-84 0-115-35zM582 338c3-7 14-14 26-16s27-12 32-22c16-31-13-50-75-50s-80-16-36-31c23-8 31-17 31-35 0-23-9-27-90-37-8-1-15-7-15-12 0-6 34-11 76-13 76-3 77-2 104 30 32 37 70 116 80 166l7 32h-72c-53 0-71-3-68-12z"/></g></svg>